<?xml version="1.0" encoding="utf-8"?>
<!DOCTYPE svg PUBLIC "-//W3C//DTD SVG 20010904//EN" "http://www.w3.org/TR/2001/REC-SVG-20010904/DTD/svg10.dtd">
<svg version="1.0" xmlns="http://www.w3.org/2000/svg" width="480px" height="480px" viewBox="0 0 480 480" preserveAspectRatio="xMidYMid meet">
 <g fill="#000000">
  <path d="M277 274.3 c-6.6 -2.4 -14.4 -10.7 -16.4 -17.3 -2 -6.7 -2 -17.1 -0.1 -23.7 1.8 -6 8 -13.5 13.9 -16.6 3.5 -1.9 5.7 -2.2 14.6 -2.2 11.9 0 15.8 1.3 22 7.5 5.6 5.6 7.4 10.2 8 21.2 l0.5 9.6 10.8 -19.4 10.9 -19.4 3.6 0 3.7 0 15.3 27.4 c10.4 18.8 15.2 28.4 15.2 30.5 l0 3.1 -9.2 0 -9.3 0 -7.9 -14.1 -7.8 -14 -7.8 13.8 -7.7 13.8 -9.2 0.3 -9.1 0.3 0 -3.1 0 -3 -5.7 3.2 c-5.1 2.9 -6.7 3.3 -14.8 3.5 -6.4 0.2 -10.3 -0.2 -13.5 -1.4z m17.8 -18.3 c3.8 -2.3 7.2 -7.5 7.2 -11 0 -5.6 -7.4 -13 -12.9 -13 -3.9 0 -8.8 3.8 -11.1 8.5 l-2.2 4.5 2.2 4.4 c2.3 4.9 7.1 8.6 11 8.6 1.4 0 4 -0.9 5.8 -2z"/>
  <path d="M115.7 247.8 c-9.3 -16.6 -14.7 -27.2 -14.7 -29 l0 -2.8 9.4 0 9.5 0 6.6 12 c3.7 6.6 7.1 12 7.4 12 0.4 0 4 -5.9 8 -13 7 -12.5 7.4 -13 10.5 -13 3.2 0 3.5 0.5 10.8 13.6 l7.6 13.6 2.5 -4.4 c1.4 -2.3 4.5 -7.9 7 -12.3 l4.5 -8 17.1 -0.3 17.1 -0.2 0 10 0 10 11 0 11 0 0 -10 0 -10 8.5 0 8.5 0 0 28.5 0 28.5 -8.5 0 -8.5 0 0 -10 0 -10 -11 0 -11 0 0 10 0 10 -8.5 0 -8.5 0 -0.2 -23.6 -0.3 -23.6 -13.5 24.1 -13.5 24.1 -3.7 0 -3.7 0 -7.1 -13 c-4 -7.2 -7.3 -13 -7.5 -13 -0.2 0 -3.6 5.8 -7.6 13 -7.3 12.9 -7.3 13 -10.9 13 l-3.6 0 -14.7 -26.2z"/>
 </g>
 <g fill="#ffffff">
  <path d="M0 240 l0 -240 240 0 240 0 0 240 0 240 -240 0 -240 0 0 -240z m302.1 29.4 c9.6 -5.2 14.5 -14.8 13.7 -26.6 -0.5 -7.4 -2.9 -12.9 -7.8 -17.8 -5.7 -5.7 -10.3 -7.5 -19 -7.5 -9.1 0.1 -13.8 2.2 -19.9 9.1 -9.9 11.3 -9.4 27.3 1.3 37.9 6.4 6.4 11.8 8.6 20.2 8.1 4.4 -0.2 7.7 -1.2 11.5 -3.2z m33.3 -14.1 c7.8 -13.9 9.3 -16.1 10.3 -14.7 0.7 0.9 5 8.4 9.5 16.5 l8.3 14.9 6.3 0 6.3 0 -3.8 -6.8 c-2.1 -3.7 -9 -16.1 -15.3 -27.5 -6.3 -11.4 -11.8 -20.7 -12.1 -20.7 -0.7 0 -30.9 53.3 -30.9 54.5 0 0.3 2.8 0.5 6.1 0.3 l6.2 -0.3 9.1 -16.2z m-192.2 0.5 c4.7 -8.4 8.9 -15.2 9.3 -15.1 0.5 0 4.6 6.8 9.1 14.9 4.6 8.2 8.7 15 9.1 15.1 0.7 0.3 29.3 -49.6 29.3 -51.1 0 -0.4 -2.8 -0.6 -6.2 -0.4 l-6.1 0.3 -7.7 13.8 c-4.2 7.6 -8.1 14.2 -8.6 14.7 -0.6 0.6 -4.1 -4.7 -9.2 -13.8 -4.5 -8.1 -8.6 -15.3 -9.1 -16 -0.6 -1 -3.4 3.3 -9.7 14.7 -4.9 8.8 -9.1 16 -9.4 16.1 -0.3 0 -4.2 -6.8 -8.8 -15 l-8.4 -15 -6.3 0 -6.3 0 14.6 26 c8 14.3 14.8 26 15.2 26 0.3 0 4.4 -6.9 9.2 -15.2z m72.8 4.2 l0 -10 14 0 14 0 0 10 0 10 5.5 0 5.5 0 0 -25.5 0 -25.5 -5.5 0 -5.5 0 0 10 0 10 -14 0 -14 0 0 -10 0 -10 -5.5 0 -5.5 0 0 25.5 0 25.5 5.5 0 5.5 0 0 -10z"/>
  <path d="M284.9 261 c-6.8 -2 -11.9 -9 -11.9 -16.2 0 -5.5 3.9 -11.8 9 -14.5 5.4 -2.9 8.4 -2.9 14 0 5.1 2.6 7.8 5.9 9 11 1.7 7.7 -1.7 14.7 -9 18.5 -4.6 2.3 -6.8 2.6 -11.1 1.2z"/>
 </g>
</svg>