<?xml version="1.0" encoding="utf-8"?>
<!DOCTYPE svg PUBLIC "-//W3C//DTD SVG 1.1//EN" "http://www.w3.org/Graphics/SVG/1.1/DTD/svg11.dtd">
<svg version="1.1" xmlns="http://www.w3.org/2000/svg" width="5000px" height="1064px" viewBox="0 0 5000 1064" preserveAspectRatio="xMidYMid meet">
 <g fill="#000000">
  <path d="M3340.3 1037.6 c-23.2 -1.5 -48.7 -5.8 -68.6 -11.3 -6.9 -2 -14.5 -3.9 -16.7 -4.4 -5.5 -1.3 -27.8 -9.5 -36.3 -13.3 -18.8 -8.5 -38.8 -18.9 -42.1 -21.9 -1 -0.9 -2.5 -1.7 -3.2 -1.7 -0.8 0 -4 -1.8 -7.2 -4 -3.1 -2.2 -6.1 -4 -6.6 -4 -0.6 0 -2.8 -1.6 -5 -3.5 -2.2 -1.8 -4.5 -3.5 -5 -3.5 -0.8 0 -9.1 -6 -16.5 -12.1 -2.1 -1.6 -4.2 -2.9 -4.7 -2.9 -0.6 0 -2.8 -1.8 -5 -4 -2.2 -2.2 -4.4 -4 -5 -4 -0.7 0 -1.7 -0.7 -2.4 -1.6 -0.7 -0.8 -6.5 -5.9 -12.8 -11.1 -12.1 -9.9 -12.9 -10.7 -30.8 -28.3 -6.2 -6 -11.8 -11 -12.5 -11 -0.6 0 -2 -1.4 -3.1 -3.1 -1.2 -1.6 -6.2 -7.3 -11.3 -12.5 -5.1 -5.2 -11.3 -11.9 -13.8 -14.8 -2.5 -3 -6.1 -7.2 -7.8 -9.2 -1.8 -2 -5 -5.9 -6.9 -8.5 -2 -2.8 -3.9 -5 -4.5 -5 -0.5 0 -0.9 -0.6 -0.9 -1.4 0 -0.8 -1.6 -3.1 -3.6 -5.1 -2 -2.1 -4.2 -4.7 -5 -6 -2.1 -3.6 -11.4 -16.8 -13 -18.5 -0.8 -0.8 -1.5 -2.1 -1.5 -2.8 0 -0.6 -1.3 -2.8 -2.9 -4.6 -1.6 -2 -4 -5.7 -5.4 -8.3 -1.3 -2.5 -2.8 -5 -3.1 -5.3 -1.4 -1 -13.1 -22.6 -20.2 -36.9 -8.9 -18 -13.4 -27.7 -13.4 -28.8 0 -0.7 -1.5 -4.5 -3.5 -8.4 -1.8 -4 -3.5 -8.3 -3.5 -9.3 0 -1.2 -1.3 -4.7 -2.8 -8.1 -1.5 -3.3 -3.3 -8.4 -4.2 -11.2 -0.7 -2.8 -2.8 -9.7 -4.6 -15.5 -1.7 -5.7 -3.7 -12.9 -4.4 -16.1 -0.7 -3.1 -2.5 -11.8 -4.2 -19 -3.1 -14.1 -6.8 -38.3 -8.8 -56.7 -1.5 -14.2 -1.5 -67.4 0 -81.1 2.3 -21.3 6 -44.4 9.8 -60.8 2.2 -9.3 4 -17.8 4 -18.9 0 -1 1.5 -6.3 3.3 -11.9 1.8 -5.4 3.6 -11.6 4 -13.7 0.3 -2.1 2 -6.5 3.5 -9.9 1.6 -3.3 3.5 -8.4 4.2 -11.2 0.8 -2.8 2.7 -7.8 4.2 -11.2 1.5 -3.3 2.8 -6.7 2.8 -7.4 0 -0.7 1.8 -5.2 4.2 -10 2.3 -4.8 5.8 -12.1 7.7 -16.3 5.3 -11.4 8.1 -16.6 9.7 -18.2 0.8 -0.8 1.5 -2.4 1.5 -3.6 0 -1 0.7 -2.7 1.5 -3.3 0.7 -0.8 3 -4.3 4.8 -7.7 7.8 -14 12.2 -21.2 13.8 -22.5 0.9 -0.8 1.7 -1.8 1.7 -2.3 0 -0.6 3 -5.2 6.7 -10.4 3.6 -5.2 7.4 -10.6 8.3 -12.1 2.9 -4.4 16.3 -21.8 19.1 -24.8 1.5 -1.6 6.5 -7.3 11.1 -12.7 10.4 -12 9.3 -11.1 34.3 -36.3 11.3 -11.4 23 -22.8 26 -25.4 8.8 -7.4 12.6 -10.7 15.7 -13.8 1.6 -1.6 3.6 -2.9 4.3 -2.9 0.8 0 1.8 -0.7 2.3 -1.6 0.9 -1.6 12.3 -10.5 19.4 -15 1.8 -1.3 4.4 -3.2 5.7 -4.4 1.3 -1.2 2.7 -2.1 3.2 -2.1 0.5 0 3.3 -1.6 6.3 -3.7 12 -8 15 -9.8 19.4 -12.1 2.5 -1.3 6.2 -3.2 8.1 -4.2 14.8 -7.6 36.7 -17 39.8 -17 1 0 2.3 -0.5 2.9 -1 1.3 -1 16.7 -6.1 24.8 -8.1 2.9 -0.7 9.1 -2.2 13.8 -3.5 4.7 -1.2 12.3 -2.8 16.7 -3.5 4.5 -0.7 13.5 -2.3 20.2 -3.6 11.6 -2.2 20.8 -3 65.2 -5.9 30.4 -2 88.4 -0.2 123.4 3.7 23.3 2.5 58.6 10.1 77.9 16.7 4.7 1.6 11.1 3.6 14 4.5 2.9 0.8 8 2.9 11.2 4.5 3.2 1.6 6.6 3 7.3 3 2.1 0 35.6 17.1 39.9 20.3 2 1.5 4.5 2.8 5.4 2.8 1 0 1.8 0.5 1.8 0.9 0 0.5 2.9 2.7 6.5 4.8 3.6 2.2 7.2 4.6 8 5.4 0.8 0.7 3 2.3 4.8 3.5 6.1 3.7 18.8 13.4 18.8 14.4 0 0.5 0.7 0.9 1.6 0.9 0.9 0 2.7 1.2 3.8 2.7 1.2 1.4 3.7 3.6 5.5 4.7 2 1.3 4.4 3.5 5.5 5 1.2 1.5 2.5 2.7 3.1 2.7 2 0 48.8 46 60.2 59.2 2.1 2.4 5.2 5.8 7 7.5 1.7 1.6 3.1 3.7 3.1 4.5 0 0.7 0.9 2.1 2.1 2.9 1.2 0.8 4.4 4.6 7.3 8.4 2.9 3.8 6.8 8.9 8.7 11.4 3.8 5.1 4.7 6.3 12.2 17.6 2.9 4.5 5.9 8.5 6.6 9 0.7 0.3 1.3 1.5 1.3 2.5 0 1 0.7 2.8 1.6 3.7 2.3 2.7 15 25.6 18.7 33.6 1 2.2 3.6 7.5 5.8 11.6 2.2 4.3 3.9 8.5 3.9 9.6 0 1 1.6 5 3.5 8.8 2 3.8 3.5 7.5 3.5 8.3 0 0.7 1.7 6.1 3.9 11.9 8 21.3 16.6 55 20.2 78.4 6.7 42.7 8.8 69.9 8.8 111.3 -0.1 49.9 -3.8 84.3 -14 127.5 -6.2 26.6 -12.3 46.5 -21.5 69.2 -1.3 3.2 -3 7.8 -3.8 10.4 -0.8 2.5 -3.1 7.5 -5.1 11 -2 3.5 -3.6 6.9 -3.6 7.7 0 0.8 -1.5 4 -3.5 7.3 -1.8 3.2 -3.5 6.5 -3.5 7.2 0 0.7 -0.7 2.2 -1.6 3.1 -0.8 1 -3.3 5.2 -5.5 9.3 -8.2 15.2 -10.4 18.9 -12.6 21.8 -1.3 1.6 -4.8 6.9 -8.1 11.6 -8 12 -22.6 31.3 -29.9 39.2 -1.6 1.8 -6 6.8 -9.8 11.1 -3.8 4.3 -9.8 10.6 -13.3 14 -15.5 15.1 -20.6 20 -21.3 20 -0.5 0 -2.4 1.7 -4.5 3.8 -5.2 5.1 -9.7 8.9 -16 13.5 -3 2.1 -5.4 4.3 -5.4 4.8 0 0.5 -0.7 0.9 -1.5 0.9 -0.8 0 -3.3 1.6 -5.4 3.5 -2.1 2 -4.5 3.5 -5.3 3.5 -0.8 0 -2 0.7 -2.4 1.6 -0.5 0.8 -4 3.6 -7.8 6 -3.8 2.4 -7.6 5.1 -8.4 5.9 -0.8 0.8 -2.2 1.5 -3 1.5 -0.8 0 -3 1.3 -4.8 2.9 -1.8 1.6 -5.2 3.7 -7.4 4.7 -2.2 1 -4.8 2.7 -5.8 3.5 -2.3 2 -52.5 27 -54.1 27 -0.7 0 -3.9 1.4 -7 3 -3.2 1.6 -7.5 3.5 -9.6 3.9 -2 0.5 -7.3 2.4 -11.8 4.4 -7.6 3.2 -27.8 9.8 -34 11.1 -1.6 0.2 -8.9 2.1 -16.1 4 -19 4.8 -49.6 9.6 -70.4 10.6 -34.6 1.8 -78.7 2.1 -100.3 0.6z m75.5 -194.6 c6.9 -0.6 16.8 -2.2 21.9 -3.5 5.1 -1.3 12.2 -3.1 16 -4 3.7 -0.9 10.1 -3.2 14.3 -5.2 4.2 -1.8 8 -3.3 8.7 -3.3 0.6 0 4.5 -1.5 8.5 -3.5 3.9 -1.8 8 -3.5 8.8 -3.5 0.7 0 4.4 -1.8 8.1 -4 3.7 -2.2 7.3 -4 8.1 -4 0.8 0 3 -0.8 4.8 -1.8 2 -1 6.1 -3.2 9.2 -4.8 3.2 -1.6 6 -3.2 6.3 -3.7 0.3 -0.3 3.7 -2.4 7.4 -4.5 3.8 -2.1 7.6 -4.5 8.5 -5.4 0.8 -0.9 2.1 -1.6 2.7 -1.6 1 0 17.3 -11.2 18.3 -12.7 0.3 -0.5 1.8 -1.5 3.5 -2.3 1.6 -0.8 3.9 -2.4 5.2 -3.7 1.3 -1.2 8.8 -7.7 16.7 -14.6 12.5 -10.8 30.3 -29.5 35.8 -37.5 0.9 -1.4 2.9 -3.8 4.4 -5.3 1.4 -1.5 2.5 -3.5 2.5 -4.3 0 -0.8 0.5 -1.5 1 -1.5 1 0 8.9 -11.5 14.5 -21.5 2 -3.3 4.2 -6.8 5 -7.6 0.7 -0.7 1.4 -2.1 1.4 -3 0 -0.8 1.8 -4.7 4 -8.4 2.2 -3.8 4 -7.6 4 -8.4 0 -0.8 1.4 -4.3 3 -7.7 1.7 -3.5 3.5 -7.7 4 -9.7 0.5 -1.8 2.4 -8.1 4.4 -13.8 6.8 -20.3 9.5 -34.4 11.4 -60.3 1.7 -22.5 1.7 -26.5 0 -49.6 -1.3 -16.8 -2.9 -29.4 -5 -38.3 -3.2 -14.4 -9.8 -36.4 -13.5 -45.6 -1.3 -3.1 -3 -7.8 -3.8 -10.4 -2.5 -7.8 -15.1 -32.5 -20.5 -40.1 -1.4 -2.1 -3.1 -4.6 -3.7 -5.7 -3.3 -5.5 -9.8 -14.4 -12 -16.4 -1.4 -1.3 -2.4 -2.7 -2.4 -3.3 0 -0.6 -1.4 -2.4 -3.1 -4.3 -1.8 -1.7 -7.2 -7.2 -11.9 -12.1 -4.7 -5 -12.8 -12.6 -17.9 -17 -5.1 -4.3 -10.1 -8.7 -11.4 -9.7 -3 -2.7 -28.3 -20.1 -29.1 -20.1 -0.3 0 -2.9 -1.5 -5.7 -3.5 -2.8 -1.8 -5.4 -3.5 -6 -3.5 -0.6 0 -3.7 -1.8 -6.9 -4 -3.3 -2.2 -6.8 -4 -7.6 -4 -0.9 0 -2.9 -0.9 -4.4 -2.1 -1.5 -1.2 -7.2 -4.3 -12.6 -6.8 -5.4 -2.5 -13.7 -6.6 -18.6 -8.9 -4.8 -2.3 -9.1 -4.2 -9.6 -4.2 -0.5 0 -4.3 -1.6 -8.4 -3.5 -4 -2 -8.1 -3.5 -8.8 -3.5 -0.8 0 -5.3 -1.5 -10.1 -3.5 -8.9 -3.5 -16.8 -5.4 -37.8 -9.3 -31.1 -5.8 -63 -0.8 -107.4 16.6 -9 3.5 -11 4.4 -19.6 8.8 -4.8 2.5 -8 4 -15 7.5 -1.6 0.8 -4.4 2.3 -6.3 3.3 -1.8 1 -6.5 3.3 -10 5.3 -3.7 1.8 -7.7 4.5 -9.2 5.8 -1.4 1.4 -2.9 2.4 -3.5 2.4 -0.5 0 -4.8 3 -9.7 6.7 -4.8 3.6 -10 7.4 -11.4 8.3 -1.4 0.9 -3.6 2.7 -4.8 3.9 -1.3 1.2 -4.2 3.8 -6.5 5.8 -7.8 7 -23.5 22.6 -28 27.9 -2.4 3 -5.7 6.5 -7 7.7 -1.5 1.3 -2.7 2.9 -2.7 3.6 0 0.7 -1.6 2.8 -3.5 4.6 -2 1.8 -3.5 3.8 -3.5 4.4 0 0.6 -0.7 1.7 -1.4 2.5 -3.5 3.6 -6.7 7.7 -6.7 8.5 0 0.5 -1.5 2.7 -3.5 4.8 -1.8 2.2 -3.3 4.4 -3.5 5 0 1.2 -6.1 10.5 -7.2 11 -0.6 0.2 -0.9 1.3 -0.9 2.3 0 0.9 -0.7 2.7 -1.6 3.6 -3.2 3.9 -17.6 33.7 -21 43.5 -1 3.1 -2.9 7.8 -4 10.6 -1.3 2.7 -2.8 7 -3.2 9.8 -0.6 2.7 -2.3 9.6 -3.9 15.2 -9.5 33.9 -9.7 86.9 -0.6 122.3 1.3 5.1 3.1 12.3 3.9 16.1 0.8 3.8 3.1 10.7 5.1 15.5 1.8 4.7 3.5 9.2 3.5 10 0 1.6 4.8 12.8 11.1 25.3 2.2 4.5 3.9 8.5 3.9 9 0 0.6 1.5 3.1 3.2 5.8 1.7 2.7 3.8 6.1 4.6 7.7 1.6 3.3 8.1 13.5 11 17.4 1.2 1.5 2.7 3.9 3.5 5.2 3.1 5.4 12.8 17.8 19 24.1 2 2.2 3.7 4.2 3.7 4.6 0 0.6 12.1 12.8 31.1 31.3 1.6 1.5 3.6 2.8 4.4 2.8 0.7 0 1.4 0.5 1.4 1 0 0.9 7.2 6.6 20 15.8 12.1 8.7 43.4 25.1 56.7 29.9 16.3 5.8 36.8 12.2 43.9 13.8 3.8 0.8 9.9 2.3 13.7 3.5 6 1.7 30.6 4.6 43.3 5.1 2.2 0 9.7 -0.5 16.7 -1.2z"/>
  <path d="M4736 1023.5 c-1.4 -2.2 -2.4 -4.5 -2.4 -5 0 -0.6 -0.9 -2.2 -2.2 -3.7 -1.2 -1.5 -4 -6.3 -6.5 -10.8 -2.4 -4.4 -5.8 -10.6 -7.6 -13.8 -1.7 -3.1 -5 -9.2 -7.3 -13.5 -2.3 -4.2 -4.6 -8 -5.3 -8.4 -0.6 -0.3 -1.2 -1.4 -1.2 -2.3 0 -0.8 -1.8 -4.3 -4 -7.6 -2.2 -3.5 -4 -6.7 -4 -7.4 0 -0.7 -1.8 -3.9 -4 -7.2 -2.2 -3.3 -4 -6.7 -4 -7.6 0 -0.8 -0.6 -2.1 -1.4 -2.9 -1.4 -1.4 -5.8 -9.1 -14.1 -24.7 -2.2 -4.2 -4.6 -8 -5.3 -8.4 -0.6 -0.3 -1.2 -1.5 -1.2 -2.4 0 -1 -1.5 -3.9 -3.2 -6.6 -1.8 -2.7 -4.6 -7.4 -6.2 -10.6 -1.6 -3.1 -4.3 -8.1 -5.9 -11 -1.6 -2.9 -4.8 -8.5 -7.2 -12.7 -2.3 -4.2 -5.9 -10.6 -8.1 -14.4 -2.2 -3.8 -5.5 -10 -7.5 -13.8 -2 -3.8 -4.4 -7.7 -5.3 -8.8 -0.9 -0.9 -1.6 -2.7 -1.6 -3.7 0 -0.9 -0.7 -2.5 -1.6 -3.3 -0.8 -0.9 -3.5 -5.2 -5.9 -9.6 -2.4 -4.5 -5.8 -10.6 -7.6 -13.8 -1.7 -3.1 -4.8 -8.9 -6.9 -12.7 -2 -3.8 -4.6 -8.2 -5.8 -9.7 -1.3 -1.5 -2.2 -3.5 -2.2 -4.4 0 -0.9 -0.6 -2.2 -1.2 -3 -2.5 -3 -6.9 -10.1 -6.9 -11.3 0 -0.7 -1 -2.7 -2.2 -4.4 -1.3 -1.7 -3.9 -6.2 -6 -10 -8.2 -15.1 -9.5 -17.5 -14.3 -25.8 -2.8 -4.7 -6.7 -11.9 -8.8 -15.8 -2.1 -4 -4.2 -7.3 -4.7 -7.3 -0.5 0 -0.9 -0.9 -0.9 -2.2 0 -1.2 -0.9 -3.3 -2.2 -4.8 -2.1 -2.7 -6 -9.6 -12.9 -22.7 -1.7 -3.5 -3.7 -6.8 -4.4 -7.5 -1 -1.4 -5 -8.2 -9.8 -17.5 -1.4 -2.5 -3.8 -6.7 -5.3 -9.2 -3.1 -5.1 -4.3 -7 -10.7 -18.7 -6.3 -11.5 -8 -14.2 -11.9 -20.5 -2 -3.1 -4.7 -8.2 -6.3 -11.2 -1.5 -3.1 -3.1 -5.5 -3.6 -5.5 -0.6 0 -0.9 -1 -0.9 -2.2 0 -1.3 -0.7 -3 -1.6 -3.9 -0.9 -0.9 -3.3 -4.7 -5.4 -8.4 -2 -3.7 -4.6 -8.1 -5.8 -9.6 -1.3 -1.5 -2.2 -3.2 -2.2 -3.8 0 -0.6 -1.8 -3.8 -4 -7.2 -2.2 -3.3 -4 -6.5 -4 -6.9 0 -0.5 -1.5 -3 -3.3 -5.7 -1.7 -2.7 -3.6 -6 -4 -7.4 -0.5 -1.5 -1.5 -3.3 -2.4 -4.2 -0.8 -0.8 -2.8 -4.2 -4.4 -7.3 -1.6 -3.1 -3.9 -6.9 -5.3 -8.4 -1.4 -1.5 -2.4 -3.2 -2.4 -3.8 0 -0.5 -1.7 -3.3 -3.8 -6.3 -2.1 -3.1 -4.5 -6.9 -5.4 -8.7 -0.8 -1.8 -2 -3.2 -2.3 -3.2 -0.5 0 -1.6 -1.7 -2.4 -3.7 -1.7 -4.3 -4.6 -7 -9.3 -9.1 -2.8 -1.2 -3.9 -0.8 -9.5 2.4 -6.9 3.9 -18.2 16.1 -27.2 29.3 -0.9 1.5 -4.3 6.3 -7.5 11.1 -3.1 4.6 -6.5 9.8 -7.4 11.4 -0.9 1.6 -2 3.2 -2.3 3.6 -1.3 1 -5.9 8 -5.9 8.9 0 0.5 -1.6 3 -3.5 5.4 -2 2.5 -3.5 5.1 -3.5 5.5 0 0.6 -1.7 3.5 -3.7 6.5 -4 5.8 -5.3 8 -10.6 17.8 -1.8 3.3 -4.5 7.7 -6 9.7 -1.5 2 -2.8 3.9 -2.8 4.4 0 0.6 -1.5 3.2 -3.5 6.1 -1.8 2.8 -3.5 5.8 -3.5 6.7 0 0.8 -0.7 2.3 -1.4 3.1 -2.8 3 -6.7 8.9 -6.7 10.1 0 0.7 -1.7 3.9 -3.9 7.3 -5.2 8.2 -8 12.8 -12.2 21 -2.1 3.8 -4 7.2 -4.5 7.5 -0.5 0.3 -1.7 2.2 -2.7 4 -4.4 8.4 -8.8 16.5 -11.3 20.8 -3.7 5.9 -5.4 9.1 -10 17.9 -2.1 3.9 -4.8 8.4 -6.1 10 -1.3 1.6 -2.3 3.9 -2.3 5.1 0 1.3 -0.5 2.2 -1 2.2 -0.6 0 -1.6 1.6 -2.4 3.5 -0.8 2 -1.8 3.5 -2.4 3.5 -0.6 0 -1 0.9 -1 2.2 0 1.2 -1 3.5 -2.3 5.1 -1.3 1.5 -3.7 5.7 -5.3 9 -1.7 3.5 -3.5 6.5 -3.9 6.8 -0.5 0.3 -2.5 3.7 -4.5 7.5 -2.1 3.8 -5.1 9.2 -6.7 12.1 -1.6 2.9 -4.3 7.8 -5.9 11 -1.6 3.2 -3.6 6.6 -4.4 7.5 -1.3 1.6 -4.7 7.8 -11.9 21.3 -1.7 3.2 -4 7.2 -5.2 8.9 -2 3 -3 5 -10.8 19.6 -2.2 4 -4.6 8.1 -5.5 9.1 -0.9 0.9 -1.6 2.7 -1.6 3.7 0 1 -0.6 2.2 -1.2 2.5 -0.7 0.5 -2.8 3.9 -4.8 7.8 -2 3.9 -3.9 7.4 -4.4 7.7 -0.5 0.3 -2.3 3.5 -4 6.9 -1.7 3.5 -4.2 7.6 -5.3 9.1 -1.3 1.5 -2.2 3.5 -2.2 4.3 0 0.9 -1.8 4.3 -4 7.4 -2.2 3.1 -4 6.3 -4 7 0 0.7 -1 2.7 -2.2 4.4 -1.3 1.7 -3.8 6 -5.7 9.5 -1.8 3.5 -4.6 8.5 -6.3 11.4 -10 17.8 -13.7 24.5 -17.1 30.9 -2.1 3.9 -4.2 7.2 -4.7 7.2 -0.5 0 -0.9 1 -0.9 2.2 0 1.3 -0.7 3 -1.6 3.8 -0.8 0.9 -3.5 5 -5.7 9.1 -8.9 15.9 -12.6 22.6 -16.4 29.3 -2.2 3.8 -4.8 8.8 -6 11 -1.2 2.2 -3.5 6.2 -5.2 8.9 -1.8 2.7 -3.2 5.5 -3.2 6.3 -0.1 0.8 -1.3 3 -2.8 4.7 l-2.7 3.2 -34.5 1.7 c-130.7 6.1 -146.8 6.2 -182.4 0.9 -5 -0.7 -5 -3.1 0.2 -13 2.2 -4.2 8.2 -16.1 13.3 -26.6 5.2 -10.5 11.4 -22.6 13.8 -27.1 2.5 -4.4 5.4 -9.8 6.3 -12 1 -2.1 3.1 -5.9 4.7 -8.3 1.5 -2.4 2.8 -5.1 2.8 -5.9 0 -0.7 0.7 -2.2 1.6 -3.1 0.8 -1 4 -6.5 7 -12.2 3 -5.7 6 -10.5 6.5 -10.7 0.6 -0.2 1 -1.3 1 -2.3 0 -1 1 -3.5 2.4 -5.4 1.3 -1.8 3.6 -6 5.2 -9.2 1.6 -3.1 4.6 -8.7 6.6 -12.3 2.1 -3.6 5.4 -9.7 7.4 -13.6 2.1 -3.9 4.8 -8.5 6.1 -10.4 1.3 -1.7 2.3 -3.8 2.3 -4.6 0 -0.7 1.6 -3.6 3.5 -6.3 2 -2.8 3.5 -5.5 3.5 -6.2 0 -1.2 4.4 -8.3 6.9 -11.3 0.6 -0.8 1.2 -2.1 1.2 -2.9 0 -0.8 1.6 -3.8 3.5 -6.6 2 -2.8 3.5 -5.5 3.5 -6 0 -0.6 1.8 -3.8 4 -7.3 2.2 -3.5 4 -6.8 4 -7.4 0 -0.6 1.5 -3.3 3.5 -6.1 1.8 -2.8 3.5 -5.8 3.5 -6.6 0 -0.8 0.6 -2.1 1.2 -2.9 2.5 -3 6.9 -10.1 6.9 -11.3 0 -0.7 1.6 -3.5 3.5 -6.2 2 -2.8 3.5 -5.5 3.5 -6.2 0 -0.7 1.7 -3.9 3.9 -7.3 2.1 -3.3 4.2 -7.3 4.6 -8.7 0.5 -1.5 1.5 -3.3 2.4 -4.2 0.8 -0.9 3.1 -4.6 5.2 -8.4 2 -3.7 5.1 -9.3 6.8 -12.6 1.7 -3.1 5.1 -9.3 7.5 -13.8 2.4 -4.4 5.1 -8.9 6 -9.9 0.9 -0.9 1.6 -2.5 1.6 -3.3 0 -0.8 0.7 -2.4 1.6 -3.3 0.9 -1 3.3 -5 5.3 -8.8 5.1 -9.6 10.6 -19.1 13 -22.5 1 -1.6 2 -3.5 2 -4.3 0 -0.8 1.8 -4.2 4 -7.3 2.2 -3.1 4 -6.5 4 -7.4 0 -0.9 0.7 -2.4 1.6 -3.3 0.9 -0.8 3.2 -4.6 5.3 -8.4 6.9 -12.9 11.4 -20.6 13.1 -23 1 -1.2 1.8 -2.9 1.8 -3.7 0 -0.8 1.8 -4.2 4 -7.3 2.2 -3.1 4 -6.5 4 -7.4 0 -0.9 0.6 -2.1 1.2 -2.4 0.7 -0.5 3.1 -4.4 5.5 -8.8 6.8 -12.9 9 -16.8 12.6 -22.6 3.6 -5.9 4.3 -7.3 9.8 -17.4 1.8 -3.6 4.4 -7.8 5.5 -9.5 1.2 -1.6 2.9 -4.7 3.9 -6.9 1 -2.2 3.9 -7.4 6.5 -11.5 2.4 -4.2 6.1 -10.6 8.1 -14.4 2 -3.8 4.4 -7.7 5.3 -8.8 0.9 -0.9 1.6 -2.4 1.6 -3.1 0 -0.8 1.8 -4 4 -7.2 2.2 -3.1 4 -6.5 4 -7.4 0 -0.9 0.6 -2.1 1.2 -2.4 0.7 -0.5 2.8 -3.9 4.8 -7.8 2 -3.9 3.9 -7.4 4.4 -7.7 0.5 -0.3 2.5 -3.7 4.5 -7.5 7.5 -14.2 12 -21.8 13.5 -23.4 0.9 -0.8 1.6 -2.3 1.6 -3.1 0 -0.9 1.6 -3.9 3.5 -6.7 2 -2.9 3.5 -5.7 3.5 -6.3 0 -0.6 0.9 -2.3 2.2 -3.8 1.2 -1.5 3.8 -5.9 5.9 -9.7 8.2 -15 9.5 -17.3 11.4 -20.2 1.2 -1.6 2.9 -4.4 3.8 -6.3 2.3 -4.3 8.9 -16 14.8 -26 2.4 -4.2 5.8 -10 7.5 -13.3 1.7 -3.1 3.8 -6.6 4.6 -7.5 0.8 -0.9 2.3 -3.6 3.3 -5.8 1 -2.2 3.9 -7.4 6.5 -11.5 4 -6.8 8.9 -15.1 14 -24.3 1 -1.8 3.2 -5.4 4.8 -7.8 1.6 -2.4 3.8 -6.2 4.8 -8.3 0.9 -2.2 3.8 -7.3 6.2 -11.4 6.5 -10.7 11.5 -19.5 14.5 -24.9 1.5 -2.5 4 -6.8 5.7 -9.5 1.6 -2.7 3 -5.3 3 -5.9 0 -0.6 0.7 -1.8 1.5 -2.7 0.8 -0.8 3.2 -4.6 5.3 -8.3 2.1 -3.8 4.7 -8.1 6 -9.7 1.2 -1.6 2.2 -3.3 2.2 -4 0 -0.6 1.8 -3.7 4 -6.7 2.2 -3.1 4 -6.2 4 -6.8 0 -0.7 1.6 -3.3 3.5 -6 2 -2.5 3.5 -5.2 3.5 -5.8 0 -0.5 1.6 -3.5 3.6 -6.5 9.7 -15 11.4 -17.9 11.4 -18.8 0 -0.6 1.8 -3.6 4 -6.7 2.2 -3 4 -6.1 4 -6.7 0 -0.6 1.5 -3.1 3.5 -5.7 1.8 -2.4 3.5 -5 3.5 -5.4 0 -0.6 1.7 -3.7 3.8 -6.9 4.2 -6.6 5 -8 9.9 -16.4 2 -3.2 4.8 -7.4 6.5 -9.2 1.6 -2 2.9 -3.8 2.9 -4.2 0 -0.9 9 -14.5 12.3 -18.8 l2.5 -3.2 3.6 3.5 c1.8 2 3.5 4 3.5 4.7 0 0.6 0.7 1.8 1.5 2.7 1.8 1.8 13.5 19.4 13.5 20.3 0 1 6.2 10 7.3 10.4 0.5 0.2 0.8 1.3 0.8 2.4 0 1 0.9 3 2.1 4.3 1.2 1.2 3.8 5.3 5.9 9.1 2.2 3.8 4.3 7.2 4.7 7.5 0.3 0.3 1.6 2.2 2.5 4 4 7.8 9.5 17.3 10.1 17.9 0.5 0.3 2.5 3.7 4.6 7.5 2.1 3.8 4.5 7.6 5.4 8.4 0.8 0.8 1.5 2.2 1.5 2.9 0 0.8 1.6 3.7 3.5 6.6 2 2.9 4.4 6.8 5.3 8.7 0.9 2 3.6 6.7 6 10.6 2.3 3.9 6.5 11.1 9.1 15.8 2.8 4.7 5.4 9 6.1 9.3 0.6 0.3 1.2 1.7 1.2 3 0 1.2 0.3 2.2 0.9 2.2 0.5 0 2.1 2.4 3.6 5.5 1.6 3 4.4 8.1 6.3 11.2 5.1 8.3 7.3 12.1 9.9 17.3 1.2 2.5 3.8 6.9 5.8 9.8 1.8 2.9 3.5 5.7 3.5 6.1 0 0.6 1.4 3.1 3.2 5.8 1.7 2.7 4.2 6.7 5.2 8.9 1.2 2.2 4 7.4 6.6 11.5 2.4 4.2 5.8 10 7.4 13.1 1.7 3 4 6.9 5.3 8.4 1.3 1.6 2.3 3.9 2.3 5.1 0 1.3 0.3 2.2 0.9 2.2 0.5 0 2.1 2.4 3.6 5.5 1.6 3 4.5 8.1 6.5 11.2 2 3.2 4.3 7.5 5.1 9.6 0.9 2 2 3.7 2.4 3.7 0.5 0 1.5 1.7 2.4 3.8 0.8 2 3.2 6.5 5.3 9.8 2.1 3.3 3.8 6.5 3.8 6.9 0 0.6 1.6 3.3 3.5 6.3 2 3 3.5 6 3.5 6.6 0 1 4.5 8.4 6.9 11.2 0.6 0.8 1.2 2.1 1.2 2.9 0 0.8 1.6 3.8 3.5 6.6 2 2.8 3.5 5.5 3.5 6.1 0 0.6 1.8 3.7 4 7 2.2 3.2 4 6.5 4 7.2 0 0.6 1.6 3.5 3.5 6.3 1.8 2.9 3.5 5.9 3.5 6.7 0 0.8 0.6 2.1 1.2 2.9 2.5 3 6.9 10.1 6.9 11.3 0 0.7 1.6 3.5 3.5 6.2 2 2.8 3.5 5.5 3.5 6.2 0 0.7 1.7 3.9 3.8 7.3 2.1 3.3 4.5 7.8 5.3 9.9 0.9 2 2 3.7 2.4 3.7 0.5 0 1.5 1.7 2.4 3.8 0.8 2 3.2 6.5 5.3 9.8 2.1 3.3 3.8 6.5 3.8 6.9 0 0.6 1.6 3.3 3.5 6.3 2 3 3.5 6 3.5 6.6 0 1 4.5 8.4 6.9 11.2 0.6 0.8 1.2 2.1 1.2 3 0 0.9 1 3 2.3 4.6 1.3 1.6 3.3 5.2 4.6 7.8 1.4 2.8 4.7 9 7.5 13.7 2.8 4.7 6.3 11 7.8 13.8 7.7 14.5 11.8 21.6 13.6 24.1 1.3 1.5 2.2 3.6 2.2 4.5 0 1 0.7 2.7 1.6 3.6 0.9 1 3.3 5 5.3 8.8 2 3.8 5.4 10 7.6 13.8 5.1 9 14 25 22.8 41.5 2.4 4.5 5.1 8.9 6 9.9 0.9 0.9 1.6 2.7 1.6 3.7 0 0.9 0.7 2.5 1.5 3.3 0.8 0.8 3.5 5.2 5.9 9.6 2.4 4.5 5.9 10.7 7.6 13.8 1.7 3.2 5.1 9.3 7.5 13.8 2.4 4.4 5.1 8.7 5.9 9.6 0.9 0.8 1.6 2.4 1.6 3.3 0 1 0.7 2.8 1.6 3.7 0.9 1 3.3 5 5.3 8.8 3.9 7.3 7 13 15 27.1 2.8 4.7 6.8 12 9 16.1 2.2 4.2 4.5 7.7 5 7.8 0.6 0.2 1 1.4 1 2.5 0 1.2 0.7 2.9 1.6 3.7 1.4 1.5 5.5 8.7 13.4 23.5 1.7 3.2 4.3 7.5 5.5 9.5 1.4 1.8 2.5 3.9 2.5 4.6 0 0.6 1.5 3.3 3.5 6.1 1.8 2.8 3.5 5.8 3.5 6.6 0 0.8 0.6 2.1 1.2 2.9 2.9 3.5 6.9 10.3 6.9 11.8 0 0.9 0.6 2 1.2 2.3 0.7 0.5 3 4.3 5.3 8.4 2.3 4.3 5.9 10.8 8.1 14.6 2.1 3.8 5.4 10 7.4 13.8 2.1 3.8 4.3 7.7 5.1 8.7 0.8 0.9 2.9 4.5 4.6 8 1.8 3.5 3.9 7 4.8 7.8 0.9 0.9 1.6 2.5 1.6 3.5 0 1 0.7 2.8 1.6 3.7 0.9 1 3.3 5 5.3 8.8 2 3.8 5.7 10.6 8.3 15 4.5 7.8 6.8 12.1 14.8 26.5 2.1 3.8 4.5 7.7 5.3 8.8 0.9 0.9 1.6 2.7 1.6 3.7 0 0.9 0.7 2.5 1.6 3.3 1.5 1.6 6.5 10.1 13.3 23.2 2 3.7 4.6 8.3 6 10.1 l2.3 3.3 -114.1 0 -114.2 0 -2.4 -4.2z"/>
  <path d="M592.5 1005.7 c-1.7 -2.2 -3.8 -4.7 -4.6 -5.7 -0.8 -0.9 -3.2 -4.5 -5.3 -8 -2.1 -3.5 -4.5 -7 -5.4 -7.8 -0.9 -0.9 -1.6 -2.2 -1.6 -3 0 -0.7 -0.9 -2.3 -2.2 -3.6 -1.2 -1.4 -3.6 -5 -5.3 -8.2 -1.7 -3.1 -4.2 -6.9 -5.3 -8.5 -1.2 -1.5 -2.2 -3.1 -2.2 -3.7 0 -0.5 -1.7 -3.5 -3.7 -6.5 -3.8 -5.7 -4.8 -7.3 -10.4 -17.3 -1.6 -3 -4.4 -7.3 -6 -9.5 -1.6 -2.2 -3 -4.5 -3 -5.1 0 -0.6 -1.5 -3.3 -3.5 -6.2 -1.8 -2.8 -3.5 -5.4 -3.5 -5.9 0 -0.5 -1.8 -3.6 -4 -6.8 -2.2 -3.3 -4 -6.5 -4 -7 0 -0.6 -0.9 -2.3 -2.2 -3.8 -1.2 -1.5 -3.8 -5.9 -5.8 -9.6 -2.1 -3.7 -4.5 -7.5 -5.4 -8.4 -0.9 -0.9 -1.6 -2.7 -1.6 -3.9 0 -1.2 -0.3 -2.2 -0.9 -2.2 -0.5 0 -2.2 -2.4 -3.7 -5.4 -1.6 -3.1 -4.3 -7.6 -5.9 -10.1 -1.7 -2.5 -4.2 -6.7 -5.5 -9.2 -1.4 -2.5 -4.6 -8 -7 -12.1 -2.5 -4.2 -5.4 -9.3 -6.5 -11.5 -1 -2.2 -3.2 -6.1 -5 -8.7 -1.7 -2.5 -3.7 -5.9 -4.5 -7.5 -0.8 -1.6 -3.5 -6.2 -6 -10.4 -2.4 -4.2 -6.1 -10.6 -8.1 -14.3 -2.1 -3.8 -4.4 -7.6 -5.3 -8.4 -0.9 -0.9 -1.6 -2.4 -1.6 -3.3 0 -1 -1.3 -3.5 -2.8 -5.4 -1.5 -2.1 -4 -6 -5.7 -8.9 -1.5 -2.9 -4.5 -8.3 -6.6 -12.1 -2.1 -3.8 -4.7 -8.2 -5.9 -9.7 -1.3 -1.5 -2.2 -3.2 -2.2 -3.8 0 -0.7 -1.5 -3.5 -3.5 -6.3 -1.8 -2.8 -3.5 -5.7 -3.5 -6.3 0 -0.7 -0.7 -2.2 -1.6 -3.1 -0.9 -1 -3.2 -5 -5.3 -8.8 -2 -3.8 -5.7 -10.3 -8.1 -14.4 -2.4 -4.2 -6.1 -10.6 -8.1 -14.4 -2 -3.8 -4.4 -7.7 -5.3 -8.8 -0.9 -0.9 -1.6 -2.4 -1.6 -3.1 0 -0.8 -1.8 -4 -4 -7.2 -2.2 -3.1 -4 -6.5 -4 -7.3 0 -0.8 -0.9 -2.7 -2 -4.3 -2.4 -3.3 -8 -12.9 -13 -22.5 -2 -3.8 -4.4 -7.7 -5.3 -8.8 -0.9 -0.9 -1.6 -2.4 -1.6 -3.2 0 -0.8 -1.5 -3.6 -3.2 -6.2 -1.8 -2.7 -4.2 -6.3 -5.1 -8.3 -5 -9.8 -8.8 -16.6 -11.4 -20.8 -1.6 -2.5 -3.6 -6.3 -4.4 -8.3 -0.9 -2.1 -2 -3.8 -2.4 -3.8 -0.5 0 -1.5 -1.7 -2.4 -3.7 -0.8 -2.1 -3.1 -6.5 -5.3 -9.7 -2.1 -3.2 -3.8 -6.7 -3.8 -7.8 0 -1 -0.5 -1.8 -0.9 -1.8 -0.5 0 -2.4 -3 -4.2 -6.6 -1.8 -3.7 -4 -7.5 -4.8 -8.4 -0.8 -0.9 -3.2 -5 -5.3 -9 -5.8 -11.1 -8.3 -15.6 -11.2 -20.3 -1.5 -2.3 -3.8 -6.5 -5.2 -9.1 -6.6 -12.3 -10.3 -18.8 -11.8 -20.5 -0.9 -0.9 -1.6 -2.7 -1.6 -3.7 0 -0.9 -0.7 -2.5 -1.6 -3.3 -0.8 -0.9 -3.5 -5 -5.7 -9.1 -9.6 -17.3 -12.7 -22.7 -16.5 -29.3 -2.2 -3.8 -4.8 -8.8 -5.8 -11 -1 -2.2 -2.5 -4.8 -3.3 -5.8 -0.8 -0.9 -3.3 -5.3 -5.8 -9.8 -2.4 -4.4 -5.5 -10.1 -6.9 -12.7 -1.4 -2.5 -4.3 -7.7 -6.3 -11.5 -2.2 -3.8 -4.8 -8.2 -6 -9.7 -1.2 -1.5 -2.1 -3.5 -2.1 -4.4 0 -0.9 -0.6 -2.2 -1.2 -3 -2.9 -3.5 -6.9 -10.3 -6.9 -11.8 0 -0.9 -0.6 -2 -1.2 -2.3 -0.7 -0.5 -3 -4.3 -5.3 -8.4 -2.2 -4.3 -5.1 -9.6 -6.5 -11.8 -1.3 -2.2 -3.8 -6.6 -5.7 -9.6 -1.8 -3.1 -3.3 -6.1 -3.3 -6.7 0 -0.6 -1.8 -3.8 -4 -7.2 -2.2 -3.2 -4 -6.5 -4 -6.9 0 -0.6 -1.5 -3.3 -3.5 -6.2 -1.8 -2.8 -3.5 -5.8 -3.5 -6.6 0 -0.7 -0.7 -2.1 -1.4 -2.8 -1.5 -1.5 -6 -9.3 -13.7 -23.9 -2 -3.8 -4 -7.2 -4.5 -7.5 -0.5 -0.3 -2.2 -3.5 -3.9 -6.9 -1.7 -3.5 -3.9 -7.2 -4.8 -8.2 -0.9 -0.9 -1.6 -2.5 -1.6 -3.6 0 -0.9 -0.9 -3 -2.2 -4.5 -2 -2.5 -3.5 -5.3 -12.9 -22.7 -2 -3.6 -4 -7 -4.5 -7.7 -0.9 -1.2 -2.3 -3.6 -10.4 -18.5 -2.1 -3.8 -4.7 -8.3 -5.9 -10 -1.3 -1.6 -2.2 -3.6 -2.2 -4.3 0 -0.7 -1.8 -3.9 -4 -7 -2.2 -3.1 -4 -6.5 -4 -7.3 0 -0.8 -0.8 -2.5 -1.8 -3.7 -1.8 -2.4 -6.7 -10.7 -13.6 -23.9 -2.3 -4.2 -4.6 -8 -5.3 -8.4 -0.6 -0.3 -1.2 -1.4 -1.2 -2.3 0 -0.8 -1.8 -4.3 -4 -7.6 -2.2 -3.5 -4 -6.7 -4 -7.4 0 -0.7 -1.3 -3 -2.9 -5.2 -1.6 -2.2 -2.9 -4.4 -2.9 -4.8 0 -0.5 51.3 -0.9 114 -0.9 l114 0 3.7 7.3 c2 3.9 5.2 9.8 6.9 12.9 1.8 3.2 5.3 9.5 7.7 13.8 2.4 4.5 5.3 9.3 6.5 10.8 1.3 1.5 2.2 3.7 2.2 4.8 0 1.3 0.5 2.2 0.9 2.2 0.6 0 2.7 3.2 4.7 7.3 2.1 3.9 6 11.1 8.8 15.8 4.8 8.3 6.1 10.7 14.3 25.8 2.1 3.8 4.7 8.3 6 10 1.2 1.7 2.2 3.7 2.2 4.4 0 1.2 4.4 8.3 6.9 11.3 0.6 0.8 1.2 2.1 1.2 3 0 0.9 0.9 2.9 2.2 4.4 1.2 1.5 3.8 5.9 5.8 9.7 2.1 3.8 5 9 6.3 11.5 1.5 2.5 4.4 7.7 6.5 11.5 2 3.8 4.2 7.5 4.6 8.1 0.5 0.7 2.8 4.8 5.2 9.2 2.4 4.5 5.5 10.1 7 12.7 2.9 5.1 8.8 15.6 15.2 27.3 2.3 4.3 5 8.4 5.8 9.2 0.7 0.7 1.4 2.2 1.4 3.1 0 0.9 0.7 2.5 1.6 3.5 0.8 1 3.6 5.5 5.9 9.9 5.9 10.8 8.7 15.8 14.2 25.4 2.7 4.5 6.3 11.2 8.3 15 2 3.8 4.4 7.7 5.3 8.8 0.9 0.9 1.6 2.4 1.6 3.1 0 0.8 1.8 4 4 7.2 2.2 3.1 4 6.3 4 7 0 0.7 1.4 3.3 3.2 6 1.7 2.7 4 6.7 5.2 8.9 1.2 2.2 4.2 7.7 6.7 12.1 2.7 4.5 6.3 11 8.2 14.4 2 3.5 4.2 7.2 5.1 8.2 0.9 0.9 1.6 2.3 1.6 3 0 0.7 1.8 4 4 7.4 2.2 3.5 4 6.6 4 7.2 0 0.6 1.6 3.2 3.5 6 2 2.8 3.5 5.4 3.5 6 0 0.6 1.8 3.7 4 6.9 2.2 3.3 4 6.6 4 7.2 0 0.7 1.6 3.5 3.5 6.2 2 2.9 3.5 5.7 3.5 6.3 0 0.6 1 2.4 2.3 4 1.3 1.5 3.6 5.4 5.3 8.4 1.6 3.1 5.1 9.3 7.6 13.7 2.7 4.5 5.5 9.7 6.6 11.5 1 2 3.3 5.7 5.1 8.3 1.7 2.8 3.1 5.3 3.1 5.9 0 0.5 1.4 2.8 3 5 1.6 2.2 4.4 6.5 6 9.5 5.5 10 6.6 11.6 10.4 17.3 2 3 3.7 5.8 3.7 6.1 0 0.3 3 5.1 6.7 10.5 3.6 5.4 7.2 11 8 12.3 0.8 1.4 2.3 3.5 3.5 4.5 2.1 1.7 2.4 1.5 6.6 -4 2.4 -3.3 4.7 -6.8 5.1 -7.7 0.3 -1 1.5 -2.9 2.7 -4.2 1 -1.3 3.3 -4.8 5.2 -8.1 1.7 -3.1 3.5 -6 3.9 -6.3 0.3 -0.3 2.5 -3.8 4.7 -7.7 2.1 -4 4.3 -7.3 4.7 -7.3 0.6 0 0.9 -0.7 0.9 -1.6 0 -1.5 1.5 -3.9 11.4 -19.4 2 -3 3.6 -6.1 3.6 -6.7 0 -1.2 4.3 -7.7 5.9 -9.2 0.3 -0.3 1.6 -2.7 3 -5.2 3.9 -7.7 8.5 -15.9 10.7 -19 1 -1.6 3.1 -5.2 4.6 -8 1.4 -2.9 3.3 -5.9 4.2 -6.8 0.9 -0.8 1.6 -2.5 1.6 -3.8 0 -1.2 0.5 -2.2 0.9 -2.2 0.6 0 1.8 -1.7 2.9 -3.7 1.2 -2.1 3.2 -5.9 4.7 -8.4 1.5 -2.5 4.2 -7.2 5.9 -10.4 1.7 -3.1 4 -7 5.1 -8.7 1.2 -1.6 3.2 -5.3 4.7 -8.3 1.5 -3.1 3.1 -5.5 3.6 -5.5 0.3 0 1.4 -1.7 2.2 -3.7 0.9 -2.1 3 -6 4.8 -8.8 1.7 -2.8 3.2 -5.7 3.2 -6.5 0 -0.8 0.9 -2.8 2.2 -4.3 2 -2.5 3.5 -5.3 12.9 -22.7 2 -3.6 4 -7 4.5 -7.7 0.9 -1.2 2.3 -3.6 10.4 -18.5 2.1 -3.8 4.7 -8.3 5.9 -10 1.3 -1.6 2.2 -3.7 2.2 -4.5 0 -0.8 0.7 -2.3 1.6 -3.2 0.9 -1 3.1 -4.7 4.8 -8.2 1.7 -3.5 3.5 -6.6 3.9 -6.9 0.5 -0.3 2.3 -3.5 4 -6.9 1.7 -3.5 4.2 -7.6 5.3 -9.1 1.3 -1.5 2.2 -3.5 2.2 -4.4 0 -0.9 0.6 -2.2 1.2 -3 2.5 -3 6.9 -10.1 6.9 -11.3 0 -0.7 1.4 -3.3 3.2 -6 1.7 -2.7 4 -6.7 5.2 -8.9 1.2 -2.2 3.8 -7.2 6 -11 2.1 -3.8 5.5 -10 7.6 -13.8 2 -3.8 4 -7.2 4.5 -7.5 0.5 -0.3 2.2 -3.5 3.9 -6.9 1.7 -3.5 3.9 -7.2 4.8 -8.2 0.9 -0.9 1.6 -2.4 1.6 -3.1 0 -0.8 1.8 -4 4 -7.2 2.2 -3.1 4 -6.3 4 -7 0 -0.7 1.6 -3.5 3.5 -6.2 2 -2.8 3.5 -5.4 3.5 -5.8 0 -0.5 1.8 -3.5 4 -6.8 2.2 -3.3 4 -6.5 4 -7 0 -0.5 1.6 -3.1 3.5 -6 2 -2.8 3.5 -5.7 3.5 -6.2 0 -0.7 1.3 -2.9 2.8 -4.8 1.5 -2.1 3.9 -5.9 5.4 -8.7 6.2 -11.3 7.6 -13.6 9.7 -17 1.3 -1.8 2.9 -4.2 3.7 -5 0.8 -0.8 1.5 -2.3 1.5 -3.1 0 -0.8 0.7 -2.3 1.5 -3.1 0.8 -0.8 3 -4 4.8 -7.3 1.8 -3.1 4.5 -7.3 6 -9 1.5 -1.8 2.7 -3.7 2.7 -4.2 0 -0.6 2.8 -5 6.1 -9.9 3.2 -4.8 6.8 -10.3 7.7 -11.9 0.9 -1.6 2.5 -3.8 3.5 -4.8 3.7 -4.2 5.8 -7 5.8 -7.8 0 -0.6 1.6 -2.8 3.5 -4.8 2 -2.1 3.5 -4.2 3.5 -4.5 0 -0.3 3.8 -4.6 8.4 -9.5 12.2 -12.8 16.1 -13 22.7 -1.4 2.1 3.6 4.4 7.3 5.3 8.2 0.9 0.8 1.6 2 1.6 2.5 0 0.9 4.7 9.2 9.9 17.3 1.4 2.2 3.9 6.5 5.5 9.5 7.2 13.1 9.1 16.6 11.1 19.4 1.2 1.6 2.9 4.7 3.9 6.9 1 2.2 3.9 7.4 6.5 11.5 2.4 4.2 6.1 10.6 8.1 14.3 2.1 3.8 4.4 7.6 5.3 8.4 0.9 0.9 1.6 2.4 1.6 3.3 0 0.9 0.6 2.3 1.2 3.1 2.9 3.5 6.9 10.3 6.9 11.8 0 0.9 0.6 2 1.2 2.3 0.7 0.5 2.8 3.9 4.8 7.8 2 3.9 3.9 7.4 4.4 7.7 0.5 0.3 2.3 3.5 4 6.9 1.7 3.5 4.2 7.6 5.3 9.1 1.3 1.5 2.2 3.5 2.2 4.4 0 0.9 0.6 2.2 1.2 3 2.7 3.1 6.9 10.3 6.9 11.4 0 0.7 0.7 2.2 1.6 3.1 0.9 1 3.5 5.1 5.5 9.1 5.9 11.2 8.3 15.6 11.3 20.4 3 4.8 5.4 9.2 11.3 20.4 2.1 4 4.6 8.1 5.5 9.1 0.9 0.9 1.6 2.7 1.6 3.7 0 0.9 0.7 2.5 1.6 3.3 0.8 0.9 3.3 5 5.5 9 10.3 18.9 11.8 21.6 13.5 24.2 1 1.6 2.9 4.7 3.9 6.9 1.2 2.2 4.2 7.7 6.7 12.1 2.7 4.5 6.3 11 8.2 14.4 2 3.5 4.2 7.2 5.1 8.2 0.9 0.9 1.6 2.5 1.6 3.3 0 0.8 0.7 2.4 1.6 3.3 0.9 1 3.3 5 5.3 8.8 5 9.5 11.4 20.4 13.4 22.6 0.9 0.9 1.6 2.7 1.6 3.7 0 0.9 0.7 2.5 1.5 3.3 2 2.1 5.5 7.6 8 12.5 1.2 2.2 4 7.2 6.3 11 2.3 3.8 5.2 8.8 6.6 11.1 8.3 14.2 9.9 16.7 10.8 17.9 0.6 0.6 2.5 3.7 4.3 6.8 1.7 3.1 4.2 6.9 5.3 8.5 1.2 1.5 2.2 3.3 2.2 4.2 0 0.7 1.3 2.9 2.8 4.6 1.6 1.8 4 5.5 5.4 8.3 1.4 2.7 3.5 5.8 4.6 6.8 1.3 1.2 2.2 2.4 2.2 3.1 0 0.6 1.8 3.7 4 6.7 2.2 3.1 4 6 4 6.6 0 0.5 1.6 2.7 3.5 4.8 1.8 2.2 3.5 4.5 3.5 5.1 0 0.6 1.8 3.2 4 6 2.2 2.7 4 5.3 4 5.9 0 0.6 1.5 2.8 3.5 5 1.8 2.2 3.3 4.6 3.5 5.4 0 0.8 0.7 1.8 1.5 2.3 0.9 0.5 4.7 5.1 8.7 10.1 9.7 12.8 18.1 20.2 22.8 20.2 0.7 0 4 -4.3 7.4 -9.5 3.3 -5.3 7 -10.6 8.1 -11.9 1.2 -1.3 3.5 -4.8 5.2 -8.1 1.7 -3.1 3.9 -6.6 4.7 -7.6 0.9 -0.9 1.6 -2.4 1.6 -3.1 0 -0.8 1.8 -3.9 4 -7 2.2 -3 4 -6.1 4 -6.7 0 -0.6 1.4 -2.9 3 -5.1 1.6 -2.2 4.3 -6.2 5.8 -9.1 1.6 -2.9 4.2 -7.3 5.7 -9.8 1.6 -2.5 3.7 -6.3 4.8 -8.4 1 -2 2.3 -3.7 2.9 -3.7 0.5 0 0.9 -1 0.9 -2.2 0 -1.3 0.8 -3 1.7 -3.9 0.9 -0.9 2.8 -3.9 4.2 -6.7 1.5 -2.8 4 -7.3 5.9 -9.9 1.7 -2.7 3.2 -5.2 3.2 -5.5 0 -0.5 1.6 -3.1 3.5 -6 2 -2.8 3.5 -5.8 3.5 -6.7 0 -0.8 0.7 -2.3 1.5 -3.1 2.8 -3 6.6 -8.9 6.6 -10.1 0 -0.7 1.6 -3.6 3.5 -6.3 2 -2.8 3.5 -5.4 3.5 -5.8 0 -0.5 1.7 -3.5 3.8 -6.7 4.2 -6.7 5.1 -8.2 9.6 -17.1 1.7 -3.5 4 -7.5 5.2 -9.1 1 -1.6 3.6 -6 5.7 -9.8 2.1 -3.8 5.1 -9.2 6.7 -12.1 1.6 -2.9 4.7 -8.5 6.9 -12.7 2.3 -4.2 4.8 -8.2 5.7 -9 0.8 -0.8 1.5 -2.3 1.5 -3.2 0 -0.9 1.8 -4.3 4 -7.4 2.2 -3.1 4 -6.5 4 -7.4 0 -0.9 0.7 -2.4 1.5 -3.2 0.8 -0.8 3.3 -4.8 5.7 -9 2.2 -4.2 5.3 -9.8 6.9 -12.7 1.6 -2.9 4.8 -8.8 7.3 -13.3 2.4 -4.4 5.3 -9.3 6.5 -10.8 1.3 -1.5 2.2 -3.7 2.2 -4.8 0 -1.3 0.5 -2.2 0.9 -2.2 0.5 0 2.4 -3 4.2 -6.6 1.8 -3.7 4 -7.5 4.8 -8.4 0.8 -0.9 3 -4.8 5.1 -8.7 2 -3.8 5.3 -10 7.4 -13.8 2.2 -3.8 5.8 -10.4 8.1 -14.6 2.3 -4.2 4.6 -8 5.3 -8.4 0.6 -0.3 1.2 -1.5 1.2 -2.5 0 -1 0.7 -2.8 1.6 -3.7 0.9 -1 3 -4.7 4.8 -8.2 1.7 -3.5 3.8 -7.2 4.5 -8.1 0.8 -0.9 3.5 -5.3 5.8 -9.8 2.4 -4.4 5.8 -10.6 7.6 -13.8 1.7 -3.1 4.8 -8.9 6.8 -12.6 2.1 -3.8 4.4 -7.6 5.3 -8.4 0.9 -0.9 1.6 -2.4 1.6 -3.3 0 -0.9 1.8 -4.3 4 -7.4 2.2 -3.1 4 -6.3 4 -7.2 0 -0.8 1.6 -3.8 3.5 -6.6 2 -2.8 3.5 -5.5 3.5 -6.1 0 -0.7 0.9 -2.5 2.2 -4.2 1.2 -1.7 3.8 -6.2 5.9 -10 2.1 -3.8 5.5 -10.3 7.8 -14.4 2.2 -4 4.7 -8.1 5.5 -9 0.9 -0.8 1.6 -2.3 1.6 -3.2 0 -0.9 0.6 -2.3 1.2 -3.1 0.7 -0.8 1.8 -2.3 2.7 -3.3 1.2 -1.7 5 -2.2 27.9 -3.2 14.6 -0.7 42.7 -2 62.3 -2.9 58.5 -2.9 75.1 -3.2 93.2 -1.8 20.4 1.5 36.7 4.2 37.9 6.2 1.2 1.8 0 6 -3.7 13.5 -1.7 3.5 -5.1 10.3 -7.3 15 -8.4 17.5 -13.8 28.5 -18.1 36.3 -2.5 4.5 -6 11 -7.8 14.4 -7.5 14.2 -12.1 22.6 -13.6 24.8 -0.9 1.3 -1.6 3.1 -1.6 4.2 0 1.2 -0.5 2.2 -1 2.4 -0.5 0.2 -3.1 4.4 -5.8 9.3 -13.3 24.8 -18.3 34.3 -24.5 45.2 -1.7 3.2 -4.8 8.9 -6.8 12.7 -2.1 3.8 -4.2 7.2 -4.6 7.5 -0.5 0.3 -2.2 3.5 -3.9 6.9 -1.7 3.5 -3.9 7.2 -4.8 8.2 -0.9 0.9 -1.6 2.4 -1.6 3.2 0 0.8 -1.5 3.6 -3.3 6.2 -1.8 2.8 -4.2 6.7 -5.2 8.9 -1 2.2 -3.7 7.2 -5.9 11 -4 7.2 -9 16 -16.5 29.6 -2.3 4.3 -5 8.4 -5.7 9.2 -0.8 0.7 -1.5 2.1 -1.5 3 0 0.9 -0.9 3 -2.2 4.6 -2.1 3 -7 11.6 -12.6 22.1 -1.5 2.9 -4.7 8.5 -7.2 12.7 -2.5 4.2 -5.4 9.3 -6.6 11.5 -1 2.2 -3.5 6.2 -5.2 8.9 -1.8 2.7 -3.2 5.3 -3.2 6 0 0.7 -1.8 3.9 -4 7 -2.2 3.1 -4 6.3 -4 7 0 0.7 -1.5 3.5 -3.5 6.2 -1.8 2.8 -3.5 5.4 -3.5 6 0 0.6 -1.3 2.8 -2.8 5.1 -2.8 4 -8.5 14.3 -12 21.2 -0.9 2 -2.7 4.7 -3.8 6.3 -2 2.9 -3.2 5.2 -11.4 20.2 -2.1 3.8 -4.7 8.2 -5.9 9.7 -1.3 1.5 -2.2 3.2 -2.2 3.8 0 0.7 -1.5 3.3 -3.2 6 -1.8 2.7 -3.7 6.3 -4.2 8 -0.3 1.7 -1.2 3.1 -1.7 3.1 -0.6 0 -1.6 1.6 -2.4 3.5 -0.8 2 -1.8 3.5 -2.4 3.5 -0.6 0 -1 0.9 -1 2.2 0 1.2 -0.9 3.3 -2.2 4.8 -1.2 1.5 -3.6 5.7 -5.3 9.1 -1.7 3.5 -3.6 6.6 -4 6.9 -0.7 0.6 -6.3 10.5 -10.1 17.9 -0.9 2 -2.4 4.3 -3.2 5.2 -0.8 0.9 -2.8 4.4 -4.5 7.5 -1.7 3.2 -5.1 9.1 -7.6 13.3 -2.4 4.2 -5.4 9.6 -6.7 12.1 -1.3 2.5 -3.9 6.9 -5.8 9.6 -2 2.7 -3.6 5.4 -3.6 6.2 0 0.7 -0.7 2.2 -1.6 3.1 -0.9 1 -3.1 4.7 -4.8 8.2 -1.7 3.5 -3.5 6.6 -3.9 6.9 -0.8 0.5 -3.6 5.4 -10.3 17.9 -1 2 -3.6 6 -5.7 9 -2.1 3.1 -3.7 6 -3.7 6.6 0 0.6 -1.5 3.3 -3.5 6.1 -1.8 2.9 -3.5 5.5 -3.5 6 0 0.6 -1.8 3.7 -4 7 -2.2 3.3 -4 6.6 -4 7.2 0 0.6 -1.5 3.2 -3.5 5.8 -1.8 2.7 -3.5 5.3 -3.5 6 0 0.7 -1.8 3.8 -4 6.9 -2.2 3.1 -4 6.1 -4 6.5 0 0.8 -6.7 12.1 -11.4 19.5 -1.6 2.5 -4.3 7 -5.9 10.1 -1.5 3 -3.2 5.4 -3.7 5.4 -0.6 0 -0.9 1 -0.9 2.2 0 1.3 -0.5 2.7 -1.2 3 -0.6 0.3 -3 4.2 -5.4 8.4 -2.3 4.3 -5 8.4 -5.7 9.2 -0.8 0.7 -1.8 2.5 -2.3 4 -0.3 1.4 -2.5 5 -4.6 8.1 -2.2 3 -3.9 6.2 -3.9 7.2 0 0.9 -0.3 1.7 -0.9 1.7 -0.5 0 -2.2 2.4 -3.7 5.5 -1.6 3 -4.3 7.5 -5.9 10 -4.7 7.4 -11.4 18.7 -11.4 19.5 0 0.3 -1.8 3.3 -4 6.5 -2.2 3.1 -4 6.2 -4 6.9 0 0.6 -1.5 3.3 -3.2 6 -9.5 14.2 -11.8 17.9 -11.8 18.7 0 0.5 -1.5 3.1 -3.5 5.9 -1.8 2.8 -3.5 5.4 -3.5 5.9 0 0.5 -1.2 2.4 -2.7 4.4 -1.5 2 -4.2 6.3 -6 9.7 -1.7 3.2 -3.7 6 -4.2 6 -0.5 0 -1.3 1.2 -1.6 2.7 -0.9 2.8 -6.5 11.5 -7.7 12.1 -0.6 0.2 -0.9 1.3 -0.9 2.4 0 1 -0.9 3 -2.2 4.3 -1.2 1.3 -3.8 5.4 -5.9 9.1 -2.1 3.8 -4.5 7.6 -5.4 8.4 -0.8 0.8 -1.5 2 -1.5 2.5 0 1.4 -11.1 17.9 -13.3 19.6 -0.9 0.8 -1.7 2 -1.7 2.5 0 0.6 -1.7 3.2 -3.8 5.9 -2.1 2.7 -5.1 6.8 -6.7 9.1 -1.5 2.4 -3.1 4.4 -3.6 4.4 -0.6 0 -0.9 0.8 -0.9 1.7 0 0.9 -0.3 1.7 -0.8 1.7 -1.7 -0.1 -5.9 -4.3 -7.6 -7.6 -0.9 -1.8 -2.8 -4.4 -4.2 -5.5 -1.4 -1.3 -2.4 -2.7 -2.4 -3.2 0 -1.3 -5.9 -9.3 -7.2 -9.9 -0.6 -0.2 -0.9 -1 -0.9 -1.8 0 -0.8 -1.4 -3.2 -3 -5.4 -1.6 -2.2 -3.7 -5.5 -4.6 -7.5 -0.9 -2 -2.8 -4.6 -3.9 -6 -1.2 -1.3 -3 -4 -4 -6.1 -2.3 -5.2 -9.7 -17.5 -10.8 -18.3 -0.5 -0.3 -2.7 -3.8 -4.8 -7.7 -2.1 -4 -4.3 -7.3 -4.7 -7.3 -0.6 0 -0.9 -1 -0.9 -2.2 0 -1.3 -0.5 -2.7 -1.2 -3 -0.6 -0.3 -3 -4.2 -5.4 -8.4 -2.3 -4.3 -5 -8.4 -5.7 -9.2 -0.8 -0.7 -1.8 -2.5 -2.3 -3.9 -0.8 -2.5 -4.4 -8.1 -7 -11.1 -0.8 -0.8 -1.5 -2.3 -1.5 -3.2 0 -1 -1.3 -3.5 -2.8 -5.4 -1.5 -2.1 -3.8 -5.8 -5.2 -8.3 -1.4 -2.5 -4.4 -7.7 -6.7 -11.5 -6.2 -10.4 -9.3 -15.8 -11.5 -19.8 -1 -2.1 -2.3 -3.8 -2.9 -3.8 -0.5 0 -0.9 -1 -0.9 -2.2 0 -1.3 -0.7 -3 -1.6 -3.9 -0.9 -0.8 -3.2 -4.6 -5.3 -8.4 -2 -3.7 -5.7 -10.1 -8.1 -14.3 -2.5 -4.2 -5.2 -8.8 -6 -10.4 -0.8 -1.6 -2.7 -5 -4.2 -7.4 -1.5 -2.5 -4 -6.8 -5.5 -9.6 -1.5 -2.7 -4 -7.3 -5.7 -10.3 -1.6 -2.9 -4.2 -7.2 -5.8 -9.5 -1.6 -2.3 -2.9 -4.6 -2.9 -5.2 0 -0.5 -1.4 -3 -3.1 -5.8 -1.8 -2.7 -4.3 -6.9 -5.7 -9.5 -7.3 -13.8 -9.7 -18.2 -10.6 -19.4 -0.7 -0.8 -2.9 -4.5 -4.8 -8.3 -2.1 -3.8 -5.2 -9.5 -7 -12.7 -1.7 -3.1 -4.6 -8.3 -6.3 -11.5 -1.6 -3.1 -4 -7 -5.2 -8.5 -1.3 -1.5 -2.2 -3.5 -2.2 -4.4 0 -0.9 -0.6 -2.2 -1.2 -3 -2.7 -3.1 -6.9 -10.3 -6.9 -11.4 0 -0.7 -0.7 -2.2 -1.6 -3.1 -0.9 -1 -3.1 -4.7 -4.8 -8.2 -1.7 -3.5 -3.5 -6.6 -3.9 -6.9 -0.5 -0.3 -2 -2.9 -3.5 -5.8 -1.4 -2.9 -3.8 -6.8 -5.3 -8.9 -1.5 -2 -2.8 -4.3 -2.8 -4.8 0 -0.7 -1.8 -3.9 -4 -7 -2.2 -3.1 -4 -6.1 -4 -6.5 0 -0.8 -6.7 -12.1 -11.4 -19.5 -1.6 -2.5 -4.3 -7 -5.9 -10 -1.5 -3.1 -3.2 -5.5 -3.7 -5.5 -0.6 0 -0.9 -0.7 -0.9 -1.6 0 -1.5 -1.5 -3.9 -11.4 -19.4 -2 -3 -3.6 -6.3 -3.6 -7.3 0 -0.9 -0.5 -1.7 -0.9 -1.7 -0.8 0 -2.3 -2.1 -7.7 -11 -9 -14.9 -11.2 -18.3 -12.7 -19.8 -0.9 -0.9 -1.7 -2.3 -1.7 -3 -0.1 -0.8 -1.6 -3.2 -3.5 -5.4 -2 -2.2 -3.5 -4.5 -3.5 -5.2 0 -0.7 -1.7 -3.3 -3.7 -5.9 -2.1 -2.5 -4.3 -5.3 -5 -6.3 -4 -6.3 -7.2 -10.1 -10.1 -12.3 l-3.5 -2.4 -3.8 3.1 c-2.2 1.7 -3.9 3.5 -3.9 3.9 0 0.7 -8.8 12.8 -13.4 18.6 -0.9 1 -1.6 2.3 -1.6 2.7 0 0.8 -12.8 20.4 -13.8 21.2 -0.5 0.3 -1.5 2 -2.4 3.6 -0.9 1.7 -3.9 6.8 -6.8 11.4 -2.9 4.5 -6 9.7 -7 11.5 -1 1.8 -3.1 5.1 -4.7 7.2 -1.5 2.1 -3.5 5.5 -4.3 7.6 -0.9 2 -2 3.7 -2.3 3.7 -0.5 0 -2 2.2 -3.3 5 -1.3 2.7 -3.7 6.6 -5.4 8.8 -1.6 2.2 -2.9 4.5 -2.9 5 0 0.6 -1.8 3.6 -4 6.7 -2.2 3.1 -4 6.1 -4 6.5 0 0.9 -7.5 13.5 -11.8 19.7 -1.7 2.7 -3.2 5.3 -3.2 6.1 0 1.4 -4.7 8.4 -6 9 -0.6 0.2 -0.9 1.2 -0.9 2.1 0 0.9 -1.8 4.4 -4 7.7 -2.2 3.2 -4 6.5 -4 7 0 0.6 -1.2 2.7 -2.7 4.6 -1.5 2 -4.2 6.3 -5.9 9.8 -1.7 3.5 -3.9 7 -4.8 7.8 -0.9 0.9 -1.6 2.7 -1.6 3.9 0 1.2 -0.3 2.2 -0.9 2.2 -0.5 0 -2.2 2.4 -3.7 5.5 -1.6 3 -4.3 7.5 -5.9 10 -1.7 2.5 -3.9 6.5 -5.1 8.7 -2.9 6.2 -6.9 13.3 -10.8 19.4 -2 3.1 -3.6 6 -3.6 6.5 0 0.6 -1.5 3.2 -3.5 6.1 -1.8 2.8 -3.5 5.7 -3.5 6.2 0 0.7 -1.5 3.3 -3.3 6 -1.7 2.7 -4.5 7.2 -6 9.8 -4.5 8.2 -6.1 11 -9.1 15.8 -3.7 6 -6.7 11.4 -10.8 19.1 -1.8 3.5 -3.7 6.5 -4.2 6.8 -0.7 0.5 -4.2 6.6 -10.3 17.9 -1 2 -3.6 6 -5.7 9 -2.1 3.1 -3.7 6.1 -3.7 6.8 0 0.7 -0.7 2.2 -1.6 3.1 -0.8 1 -2.9 4.2 -4.4 7 -4.3 7.6 -10 17.2 -13.8 22.7 -1.7 2.7 -3.2 5.5 -3.2 6.6 0 1 -0.5 1.8 -1 1.8 -0.6 0 -1.6 1.6 -2.4 3.5 -0.8 2 -1.8 3.5 -2.4 3.5 -0.6 0 -1 0.8 -1 1.7 0 0.9 -1.6 4.3 -3.6 7.3 -9.6 14.9 -11.4 17.9 -11.4 18.8 0 0.5 -1.7 3.5 -3.7 6.5 -3.8 5.7 -4.8 7.3 -10.4 17.3 -1.6 3 -4.4 7.3 -6 9.5 -1.6 2.2 -3 4.5 -3 5.1 0 0.5 -1.5 3.2 -3.5 6 -1.8 2.8 -3.5 5.5 -3.5 6.2 0 0.6 -1.3 2.5 -2.7 4.4 -1.5 1.7 -4.2 6 -6 9.3 -1.7 3.2 -3.7 6 -4.2 6 -0.5 0 -1.3 1.2 -1.7 2.5 -0.3 1.4 -2.5 4.8 -4.6 7.8 -2.2 3 -3.9 5.9 -3.9 6.5 0 0.6 -1.6 2.9 -3.5 5.1 -1.8 2.2 -3.5 4.6 -3.5 5.2 0 0.7 -2.3 3.7 -5 6.8 l-5 5.7 -3.1 -3.9z"/>
  <path d="M1876.6 531.7 l0 -460.2 99.8 0 99.8 0 0 180.5 0 180.5 252.6 0 252.6 0 0 -180.5 0 -180.5 99.2 0 99.2 0 0 460.2 0 460.2 -99.2 0 -99.2 0 0 -180.5 0 -180.5 -252.6 0 -252.6 0 0 180.5 0 180.5 -99.8 0 -99.8 0 0 -460.2z"/>
 </g>
 <g fill="#ffffff">
 </g>
</svg>