<svg version="1.2" xmlns="http://www.w3.org/2000/svg" viewBox="0 0 200 200" width="200" height="200">
	<title>New Project</title>
	<style>
		.s0 { fill: #000000 } 
		.s1 { fill: #ffffff } 
	</style>
	<path id="Wo" class="s0" aria-label="Wo"  d="m90.2 140.1h-29.1l-4.7-27.3-10.2 27.3h-29l-14-80.4 29.1-0.1 7 41.9 15.1-42h21.7l7.1 42 15.1-42 21.8 0.2z"/>
	<path id="Wo" class="s1" aria-label="Wo"  d="m124 59.5h73l-8.1 80.5-72.9-0.1zm38.1 58.5l3.5-36.6h-14.5l-3.7 36.6z"/>
	<path id="Wo copy" class="s0" aria-label="Wo"  d="m90.2 140.1h-29.1l-4.7-27.3-10.2 27.3h-29l-14-80.4 29.1-0.1 7 41.9 15.1-42h21.7l7.1 42 15.1-42 21.8 0.2z"/>
	<path id="Wo copy" class="s1" aria-label="Wo"  d="m124 59.5h73l-8.1 80.5-72.9-0.1zm38.1 58.5l3.5-36.6h-14.5l-3.7 36.6z"/>
</svg>