<svg version="1.2" xmlns="http://www.w3.org/2000/svg" viewBox="0 0 400 165" width="100%" height="100%">
	<title>New Project</title>
	<style>
		.s0 { fill: #FFFFFF } 
	</style>
	<path id="WHOA" class="s0" aria-label="WHOA"  d="m108.2 126.1h-29.1l-4.7-27.3-10.2 27.3h-29l-14-80.4 29.1-0.1 7 41.9 15.1-42h21.7l7.1 42 15.1-42 21.8 0.2zm54.9 0h-28.9l9.4-95.3-7.4-0.1 2.1-21.7h36.8l-3.6 36.5 43.9-0.1-11.1 110h-29.3l9-88.1h-15.1zm60.2-80.6h73l-8.1 80.5h-72.9zm38 58.5l3.6-36.6h-14.6l-3.6 36.5zm42.9-58.5h73.2l-8.2 80.5h-29.1l1.7-14.8-16.4 14.7h-29.2zm38.2 58.5l3.6-36.6h-14.8l-3.6 36.6z"/>
</svg>